<svg id="Layer_1" data-name="Layer 1" xmlns="http://www.w3.org/2000/svg" viewBox="0 0 531.57 75.16"><defs><style>.cls-1{fill:#524846;}</style></defs><title>Vector Smart Object</title><path class="cls-1" d="M45.34,56.64H61.83a13.39,13.39,0,0,1-4.68-4.09,19.47,19.47,0,0,1-2.38-4.88L38.22,6.7H25.88a3.46,3.46,0,0,1,2.57,2.18A4.8,4.8,0,0,1,28.12,12L13,49.91a12,12,0,0,1-2.84,4.75,10.94,10.94,0,0,1-2.9,2H21.79a4,4,0,0,1-2.37-1.32c-0.93-.86-0.79-3.17-0.2-4.88l4.44-12.21L33.49,14.3c0,0.42,12.07,30.39,12,30.4L45.64,45l2.47,6.69c0.46,1.19.79,2.31-.07,3.23a5.54,5.54,0,0,1-2.71,1.72" transform="translate(-7.21 -6.42)"/><path class="cls-1" d="M84.38,55.64V50.76c-2.09,3.42-5.39,6.4-11.91,5.89C66.2,56.08,61.26,51.58,61.26,43l0.06-15.14a7.64,7.64,0,0,0-.38-3.17,5.91,5.91,0,0,0-2.85-2.47h5.45a6.52,6.52,0,0,0,2.6-.25A5.51,5.51,0,0,0,68,21.11V41.7c0,6.91,3.42,8.87,7.16,9.38,5.7,0.7,9.18-4.31,9.18-9.63l0.06-12.23c0-1.83,0-3.48-.57-4.56a5.1,5.1,0,0,0-2.47-2.41H86.4a9,9,0,0,0,2.92-.19,8.17,8.17,0,0,0,1.83-.83V49.56c0,1.65-.06,2.79.76,4.12a6.51,6.51,0,0,0,2.22,2H84.38Z" transform="translate(-7.21 -6.42)"/><path class="cls-1" d="M124.47,55.64V35.56A9.76,9.76,0,0,0,114.53,26c-7.79,0-11,5.89-11,12.16,0,8.49,6.78,13.62,12.35,13.62a10.85,10.85,0,0,0,5.38-1.33l1.14-.7-4.31,6.59-1.2.13C105.72,57.79,96,50.89,96,38.66,96,30.81,101.86,21,113.39,21c3.74,0,8.43,1.59,11.15,4.5v-12c0-1.77-.13-3.1-1.27-4.43a4.47,4.47,0,0,0-1.83-1.4h6.78a3.4,3.4,0,0,0,1.9-.51,2.39,2.39,0,0,0,1.14-.76V49.81a7.28,7.28,0,0,0,.83,4,4.63,4.63,0,0,0,2.21,1.84h-9.81Z" transform="translate(-7.21 -6.42)"/><path class="cls-1" d="M163.3,55.64V50.76c-2.09,3.42-5.38,6.4-11.91,5.89-6.27-.57-11.21-5.07-11.21-13.61l0.06-15.14a7.68,7.68,0,0,0-.38-3.17A5.92,5.92,0,0,0,137,22.26h5.45a6.51,6.51,0,0,0,2.59-.25,5.49,5.49,0,0,0,1.84-.89V41.7c0,6.91,3.42,8.87,7.16,9.38,5.7,0.7,9.18-4.31,9.18-9.63l0.06-12.23c0-1.83,0-3.48-.57-4.56a5.1,5.1,0,0,0-2.47-2.41h5.07a9,9,0,0,0,2.92-.19,8.13,8.13,0,0,0,1.83-.83V49.56c0,1.65-.06,2.79.76,4.12a6.49,6.49,0,0,0,2.22,2H163.3Z" transform="translate(-7.21 -6.42)"/><path class="cls-1" d="M183.32,56.27l-7.86-.63a4.36,4.36,0,0,0,1.71-1.84,4.26,4.26,0,0,0,.7-2.79V13.51a6.24,6.24,0,0,0-1.21-4.37,6.68,6.68,0,0,0-1.78-1.46h6.4a4.88,4.88,0,0,0,1.91-.38,9,9,0,0,0,1.52-.88v44c5.19,3,19.12.44,18.62-11.53s-9.94-13.62-15.71-11.34l-1.27.51L190,21.94l1.21-.25c10.39-2.35,19.32,4.18,19.32,17,0,10.58-9,19-27.17,17.61" transform="translate(-7.21 -6.42)"/><path class="cls-1" d="M243,38.91c0,6.84-3.48,13-11.08,13-7.28,0-11.53-5.76-11.53-13.68,0-6.65,4.37-12.16,11.53-12.16S243,32.9,243,38.91m7.28-.13c0-8.29-6.14-17.48-18.37-17.48S213.28,29.67,213.28,39c0,9.88,7.09,17.66,18.62,17.66,11.08,0,18.43-8.55,18.37-17.86" transform="translate(-7.21 -6.42)"/><path class="cls-1" d="M275.23,55.64a4.59,4.59,0,0,0,2.28-2.09,6.44,6.44,0,0,0,.69-3.8V35.62c0-5.19-2.15-9.56-8-9.63-6.59-.13-8.23,4.18-8.23,8.81V49.37a7.9,7.9,0,0,0,.57,3.86A4.9,4.9,0,0,0,265,55.64H252.23a4.9,4.9,0,0,0,2.59-2.15,8.89,8.89,0,0,0,.7-4.5l-0.06-20.9c0-1.78.06-3-.95-4.31a3.62,3.62,0,0,0-2-1.52h6.08a3.8,3.8,0,0,0,1.9-.45,3.42,3.42,0,0,0,1.4-1l-0.07,4.69c2.53-3.1,8.17-5.13,13.3-4.31,6.34,1,9.63,5.71,9.63,11.47l0.06,16.79c0,1.65-.06,3,0.89,4.3a5.56,5.56,0,0,0,2,1.84H275.23Z" transform="translate(-7.21 -6.42)"/><path class="cls-1" d="M322,56.84a33.82,33.82,0,0,1-8-.82l-4.37-1.14-2-9.19,1,0.7c4.74,3.36,9.69,5.13,14.06,5.13,6.84,0,11.21-3.11,11.21-6.9,0-5.07-2.91-7.35-14-12.1-8.86-3.87-11-8.74-11-13.11,0-9.5,8-12.8,18.05-12.8a34.25,34.25,0,0,1,10.45,1.46l0.76,0.25v8.17l-0.88-.82a17.19,17.19,0,0,0-11.27-4.18c-4.5.06-8.74,2.28-8.74,6.21,0,5.45,4.81,7.86,11.91,10.83,8,3.49,13.18,7.54,13.18,13.24,0,10-10.33,15.07-20.4,15.07" transform="translate(-7.21 -6.42)"/><path class="cls-1" d="M374.79,38.91c0,6.84-3.48,13-11.09,13-7.28,0-11.52-5.76-11.52-13.68,0-6.65,4.37-12.16,11.52-12.16s11.09,6.78,11.09,12.8m7.28-.13c0-8.29-6.14-17.48-18.37-17.48S345.09,29.67,345.09,39c0,9.88,7.09,17.66,18.62,17.66,11.09,0,18.44-8.55,18.37-17.86" transform="translate(-7.21 -6.42)"/><path class="cls-1" d="M413.94,55.06l-1.52.38a27.43,27.43,0,0,1-7.6,1.2c-12.41,0-20.46-8.36-20.46-17.8,0-11.72,10.26-17.61,21.16-17.61a34.13,34.13,0,0,1,6.84.7l0.51,0.13v7.72l-0.7-.63a13.33,13.33,0,0,0-9-3.23c-6.21,0-11.53,5.38-11.53,12.22,0,7.28,5.89,13.68,15.08,13.68a17.77,17.77,0,0,0,8.93-2.53l2-1.08Z" transform="translate(-7.21 -6.42)"/><path class="cls-1" d="M427.43,8.57c6.08-.06,6.27,9,0.19,9.12s-6.21-9-.19-9.12M421.6,55.64a6.68,6.68,0,0,0,2-1.78,5,5,0,0,0,1-3.36V27.7c0-1.46.06-2.53-.76-3.73a3.82,3.82,0,0,0-2-1.71l5.58-.13a5.83,5.83,0,0,0,2.09-.38,5.5,5.5,0,0,0,1.84-.89l0.06,29.39a5.83,5.83,0,0,0,.57,3.17,7.38,7.38,0,0,0,2.28,2.22H421.6Z" transform="translate(-7.21 -6.42)"/><path class="cls-1" d="M465.63,33.34l-18.82-.06c1.14-4.94,4.94-7.35,9.63-7.35s7.85,2.15,9.19,7.41m7.54,14.57-2,1.2a17.67,17.67,0,0,1-9,2.67c-11.85,0-15.58-6.78-15.58-14.06h26.6V36.19c0-9-7.79-15.2-16.22-15.2-10.45,0-18.49,6.59-18.49,17.42s9.25,18,20.52,18.18a27.24,27.24,0,0,0,9.25-1.39l1.39-.51Z" transform="translate(-7.21 -6.42)"/><path class="cls-1" d="M493.88,57.41a10.56,10.56,0,0,1-8.36-1c-3.17-2-4.75-6.46-4.75-10.45V27.51h-5v-3.1l2.1-.57a8,8,0,0,0,4.62-3.67,14.33,14.33,0,0,0,2-7.92l0.06-1.46h3.11V22.26h6.9a7.17,7.17,0,0,0,2-.25,5.39,5.39,0,0,0,1.27-.51V29a3.45,3.45,0,0,0-1.71-1.2,5.13,5.13,0,0,0-2.28-.26h-6.21V45.05c0,3.1.82,5.64,3.48,7a7.69,7.69,0,0,0,6.72-.06Z" transform="translate(-7.21 -6.42)"/><path class="cls-1" d="M522.82,59.81c-1.65,4.05-5.76,9.44-11.78,10.39-4.62.76-7.61,0.51-11.53-1.71l6.14-4.56a6.19,6.19,0,0,0,4.43,1.78c3.42,0.07,5.64-2.91,6.78-5.76l2-4.82a13.68,13.68,0,0,1-1.84-2,10.62,10.62,0,0,1-1.39-2.28l-11-24.07a8.71,8.71,0,0,0-2.15-2.91,9.88,9.88,0,0,0-2.34-1.58H507a4.22,4.22,0,0,1,2.15.57,4,4,0,0,1,1.83,2l11,24.51L530,28.59a7.09,7.09,0,0,0,.51-4.05c-0.25-1.14-2.15-2.22-2.34-2.28h10.58Z" transform="translate(-7.21 -6.42)"/><path class="cls-1" d="M90.32,79.87a11.77,11.77,0,0,1-1.67-1.15,4,4,0,0,1-1-1.76l-2.47-7.62L82,79.87c-0.15-.06-1.06-0.75-1.61-1.15a3.34,3.34,0,0,1-1-1.63l-3.09-9.56a4.31,4.31,0,0,0-.48-1.11,4.44,4.44,0,0,0-.84-1h3.11a0.26,0.26,0,0,0-.09.24A6.55,6.55,0,0,0,78.24,67l3.16,9.72,2.7-8.9a2.73,2.73,0,0,0,.09-1.4,1.41,1.41,0,0,0-.82-0.94h3.11a1,1,0,0,0-.09.44,5.54,5.54,0,0,0,.29,1.41l3,9.38,2.67-8.81a2,2,0,0,0,.09-1.41,1.45,1.45,0,0,0-1.06-1h3.31Z" transform="translate(-7.21 -6.42)"/><path class="cls-1" d="M113.46,79.28l-8.94,0a1.5,1.5,0,0,0,.81-0.64,4,4,0,0,0,.31-2l0-9a2.75,2.75,0,0,0-.22-1.5,1.63,1.63,0,0,0-.86-0.72h7.27a3.37,3.37,0,0,0,.37,0,1.24,1.24,0,0,0,.27-0.13v2.58a4.46,4.46,0,0,0-.42-0.41c-0.89-.77-3.56-0.51-4.11-0.4l-0.17,0V71h2.67A1.76,1.76,0,0,0,111,71a1.14,1.14,0,0,0,.28-0.11V73.2a1.25,1.25,0,0,0-.42-0.46,4.86,4.86,0,0,0-1.68-.26h-1.41v5c0.07,0,3.31.54,4.55,0.09a5.18,5.18,0,0,0,2.14-1.19Z" transform="translate(-7.21 -6.42)"/><path class="cls-1" d="M128.41,79.63a9.73,9.73,0,0,1-2.32-.24l-1.26-.33-0.56-2.65,0.29,0.2a7.24,7.24,0,0,0,4.06,1.48c2,0,3.24-.89,3.24-2,0-1.46-.84-2.12-4-3.49-2.56-1.12-3.16-2.52-3.16-3.78,0-2.74,2.3-3.69,5.21-3.69a9.93,9.93,0,0,1,3,.42l0.22,0.08V68l-0.26-.24a5,5,0,0,0-3.25-1.21c-1.3,0-2.52.66-2.52,1.79,0,1.57,1.39,2.27,3.44,3.13,2.32,1,3.8,2.17,3.8,3.82,0,2.89-3,4.35-5.89,4.35" transform="translate(-7.21 -6.42)"/><path class="cls-1" d="M154.42,67.93a1.48,1.48,0,0,0-.42-0.67,1.81,1.81,0,0,0-1.06-.17h-2.23V77.17a2.38,2.38,0,0,0,.39,1.48,1.88,1.88,0,0,0,.8.64h-4.28a1.26,1.26,0,0,0,.7-0.64,3.89,3.89,0,0,0,.24-1.51v-10h-2.17a4.39,4.39,0,0,0-1.53.27,3.15,3.15,0,0,0-.7.51l0.75-2.58c0.16,0.05.27,0.08,0.42,0.11s0.38,0,.62,0h8.22a2.24,2.24,0,0,0,.59,0,1.53,1.53,0,0,0,.41-0.13Z" transform="translate(-7.21 -6.42)"/><path class="cls-1" d="M173.86,79.28l-8.94,0a1.48,1.48,0,0,0,.8-0.64,4,4,0,0,0,.31-2l0-9a2.75,2.75,0,0,0-.22-1.5,1.62,1.62,0,0,0-.86-0.72h7.27a3.29,3.29,0,0,0,.36,0,1.15,1.15,0,0,0,.27-0.13v2.58a4.68,4.68,0,0,0-.42-0.41c-0.9-.77-3.57-0.51-4.11-0.4l-0.16,0V71h2.67A1.8,1.8,0,0,0,171.4,71a1.05,1.05,0,0,0,.27-0.11V73.2a1.25,1.25,0,0,0-.42-0.46,4.84,4.84,0,0,0-1.68-.26h-1.4v5c0.07,0,3.31.54,4.55,0.09a5.19,5.19,0,0,0,2.14-1.19Z" transform="translate(-7.21 -6.42)"/><path class="cls-1" d="M194.39,79.23c-1-.25-2.54-2.38-3.87-4.11-0.73-1-1.89-2.85-2-3a5.74,5.74,0,0,0,1.74-.42,2.76,2.76,0,0,0,1.86-3c-0.22-1.35-1.84-2.21-3.75-1.74l-0.33.07V77a4,4,0,0,0,.2,1.59,1.45,1.45,0,0,0,.68.66h-4a1.25,1.25,0,0,0,.75-0.64,3.4,3.4,0,0,0,.24-1.58V67.55a2.4,2.4,0,0,0-.33-1.48,1.5,1.5,0,0,0-.71-0.63h5.28c2.14,0,4.09,1.08,4.2,3.48,0.09,1.44-1.36,3.11-3.16,3.6l-0.2.05,3.38,4.28a7.91,7.91,0,0,0,1.76,1.54,8.92,8.92,0,0,0,1.77.89,21.48,21.48,0,0,1-3.51-.05" transform="translate(-7.21 -6.42)"/><path class="cls-1" d="M220.83,66.31a2.44,2.44,0,0,0-.27,1.39l0,12.28a4.71,4.71,0,0,1-1.64-.84,5.84,5.84,0,0,1-1.26-1.35l-7.4-9.36,0,8.64a2.38,2.38,0,0,0,.53,1.76,2.12,2.12,0,0,0,.69.45h-4a2,2,0,0,0,.91-0.69,2.34,2.34,0,0,0,.36-1.48V67.59a2.49,2.49,0,0,0-.24-1.28,2,2,0,0,0-1-.86h3.36a0.53,0.53,0,0,0,.07.33,4.61,4.61,0,0,0,.42.66L219,76V67.66a2.68,2.68,0,0,0-.35-1.56,1.72,1.72,0,0,0-.8-0.66h4a1.74,1.74,0,0,0-1,.86" transform="translate(-7.21 -6.42)"/><path class="cls-1" d="M251.08,73.07a4.11,4.11,0,0,1-1.57-.25,4.36,4.36,0,0,0,1.5-.4,3,3,0,0,0,2.13-3.57c-0.26-1.59-1.81-2.08-3.71-1.85l-0.64.09v10a3,3,0,0,0,.31,1.52,2.3,2.3,0,0,0,.79.69h-4.19a1.19,1.19,0,0,0,.69-0.59,4,4,0,0,0,.28-1.64V67.57a2.37,2.37,0,0,0-.29-1.5,1.67,1.67,0,0,0-.7-0.63h5.19c2.36,0,4.57,1.21,4.74,3.57s-2.18,4.06-4.52,4.06" transform="translate(-7.21 -6.42)"/><path class="cls-1" d="M274.32,79.28l-8.93,0a1.47,1.47,0,0,0,.8-0.64,4,4,0,0,0,.31-2l0-9a2.79,2.79,0,0,0-.22-1.5,1.65,1.65,0,0,0-.86-0.72h7.27a3.41,3.41,0,0,0,.37,0,1.27,1.27,0,0,0,.27-0.13v2.58a4.67,4.67,0,0,0-.42-0.41c-0.9-.77-3.57-0.51-4.12-0.4l-0.16,0V71h2.67a1.8,1.8,0,0,0,.57-0.05,1.15,1.15,0,0,0,.27-0.11V73.2a1.22,1.22,0,0,0-.42-0.46,4.85,4.85,0,0,0-1.68-.26h-1.41v5c0.08,0,3.31.54,4.55,0.09a5.19,5.19,0,0,0,2.14-1.19Z" transform="translate(-7.21 -6.42)"/><path class="cls-1" d="M298.51,66.31a2.43,2.43,0,0,0-.28,1.39l0,12.28a4.68,4.68,0,0,1-1.64-.84,5.74,5.74,0,0,1-1.26-1.35l-7.41-9.36,0,8.64a2.38,2.38,0,0,0,.53,1.76,2.17,2.17,0,0,0,.69.45h-4a2,2,0,0,0,.91-0.69,2.36,2.36,0,0,0,.36-1.48V67.59a2.52,2.52,0,0,0-.23-1.28,2,2,0,0,0-1-.86h3.37a0.54,0.54,0,0,0,.07.33,4.14,4.14,0,0,0,.42.66L296.66,76V67.66a2.69,2.69,0,0,0-.35-1.56,1.73,1.73,0,0,0-.8-0.66h4a1.74,1.74,0,0,0-1,.86" transform="translate(-7.21 -6.42)"/><path class="cls-1" d="M322.58,66.31a2.45,2.45,0,0,0-.28,1.39l0,12.28a4.74,4.74,0,0,1-1.65-.84,5.83,5.83,0,0,1-1.26-1.35L312,68.43l0,8.64a2.37,2.37,0,0,0,.53,1.76,2.12,2.12,0,0,0,.7.45h-4a1.94,1.94,0,0,0,.91-0.69,2.31,2.31,0,0,0,.37-1.48V67.59a2.49,2.49,0,0,0-.23-1.28,2,2,0,0,0-1-.86h3.36a0.58,0.58,0,0,0,.07.33,4.28,4.28,0,0,0,.42.66L320.73,76V67.66a2.69,2.69,0,0,0-.35-1.56,1.74,1.74,0,0,0-.8-0.66h4a1.73,1.73,0,0,0-1,.86" transform="translate(-7.21 -6.42)"/><path class="cls-1" d="M337.42,79.63a9.73,9.73,0,0,1-2.32-.24l-1.26-.33-0.56-2.65,0.29,0.2a7.23,7.23,0,0,0,4.06,1.48c2,0,3.23-.89,3.23-2,0-1.46-.84-2.12-4-3.49-2.55-1.12-3.16-2.52-3.16-3.78,0-2.74,2.31-3.69,5.21-3.69a10,10,0,0,1,3,.42l0.22,0.08V68l-0.26-.24a5,5,0,0,0-3.25-1.21c-1.29,0-2.52.66-2.52,1.79,0,1.57,1.39,2.27,3.44,3.13,2.32,1,3.8,2.17,3.8,3.82,0,2.89-3,4.35-5.89,4.35" transform="translate(-7.21 -6.42)"/><path class="cls-1" d="M360.54,73.23V77a2.23,2.23,0,0,0,1.15,2.26h-4.28a1.58,1.58,0,0,0,.71-0.68,3.6,3.6,0,0,0,.24-1.67l0-3.69-3.73-6a5.12,5.12,0,0,0-.82-1.12,3.79,3.79,0,0,0-.88-0.68H355a1.81,1.81,0,0,1,.81.19,1.15,1.15,0,0,1,.66.62l3.27,5.26,2.69-4a2.16,2.16,0,0,0,.31-1.2,1.44,1.44,0,0,0-.82-0.84h3.78Z" transform="translate(-7.21 -6.42)"/><path class="cls-1" d="M384.32,79.28h-8.83a1.43,1.43,0,0,0,.86-0.66,3.64,3.64,0,0,0,.25-1.81V67.68a3,3,0,0,0-.27-1.64,1.48,1.48,0,0,0-.75-0.59h4.24a1.69,1.69,0,0,0-.77.61,3.09,3.09,0,0,0-.29,1.72V77.5c0.07,0,3.27.56,4.55,0.07a5.77,5.77,0,0,0,2.06-1.1Z" transform="translate(-7.21 -6.42)"/><path class="cls-1" d="M400.32,79.91a11.2,11.2,0,0,1-1.53-1.06,4.25,4.25,0,0,1-1-1.72l-3.31-9.21a9.24,9.24,0,0,0-.45-1.19,5.21,5.21,0,0,0-.86-1.28h3a1,1,0,0,0-.05.35,6.8,6.8,0,0,0,.33,1.3l3.55,9.67,3.31-9a2.5,2.5,0,0,0,.18-1.33,1.42,1.42,0,0,0-.75-1h3.16Z" transform="translate(-7.21 -6.42)"/><path class="cls-1" d="M421.69,72.63h-4.15l2.08-5.24Zm5.81,6.65a3.64,3.64,0,0,1-1.29-1.13,5.38,5.38,0,0,1-.66-1.36L421,65.45h-3.42a1,1,0,0,1,.72.61,1.37,1.37,0,0,1-.09.87L414,77.43a3.25,3.25,0,0,1-.78,1.31,2.88,2.88,0,0,1-.8.55h4a1.11,1.11,0,0,1-.66-0.36,1.48,1.48,0,0,1-.05-1.35L417,74.11h5.23l1.52,3.8a0.81,0.81,0,0,1,0,.9,1.51,1.51,0,0,1-.75.48h4.57Z" transform="translate(-7.21 -6.42)"/><path class="cls-1" d="M450.69,66.31a2.45,2.45,0,0,0-.27,1.39l0,12.28a4.65,4.65,0,0,1-1.64-.84,5.81,5.81,0,0,1-1.27-1.35l-7.4-9.36,0,8.64a2.35,2.35,0,0,0,.53,1.76,2.15,2.15,0,0,0,.69.45h-4a2,2,0,0,0,.91-0.69,2.32,2.32,0,0,0,.37-1.48V67.59a2.49,2.49,0,0,0-.24-1.28,2,2,0,0,0-1-.86h3.36a0.55,0.55,0,0,0,.08.33,4.21,4.21,0,0,0,.42.66L448.85,76V67.66a2.69,2.69,0,0,0-.35-1.56,1.73,1.73,0,0,0-.8-0.66h4a1.76,1.76,0,0,0-1,.86" transform="translate(-7.21 -6.42)"/><path class="cls-1" d="M462.26,79.28a1.35,1.35,0,0,0,.75-0.64,3.19,3.19,0,0,0,.27-1.61V67.57a2.36,2.36,0,0,0-.31-1.52,1.38,1.38,0,0,0-.71-0.61h4.22a1.45,1.45,0,0,0-.75.63,4.06,4.06,0,0,0-.29,1.57v9.45a3.33,3.33,0,0,0,.29,1.61,1.25,1.25,0,0,0,.77.59h-4.24Z" transform="translate(-7.21 -6.42)"/><path class="cls-1" d="M486.16,72.63H482l2.08-5.24ZM492,79.28a3.73,3.73,0,0,1-1.3-1.13A5.66,5.66,0,0,1,490,76.8l-4.58-11.35H482a1,1,0,0,1,.71.61,1.31,1.31,0,0,1-.09.87l-4.21,10.5a3.24,3.24,0,0,1-.78,1.31,2.88,2.88,0,0,1-.8.55h4a1.11,1.11,0,0,1-.66-0.36,1.46,1.46,0,0,1-.05-1.35l1.26-3.46h5.23l1.52,3.8a0.81,0.81,0,0,1,0,.9,1.49,1.49,0,0,1-.75.48H492Z" transform="translate(-7.21 -6.42)"/><path class="cls-1" d="M27.41,73.47c0,3.17-2.2,6.5-5.81,6.5a6.06,6.06,0,0,1-6.11-6.4c0-3.31,2-6.63,5.84-6.63,4.33,0,6.07,3.3,6.07,6.52M30,73.8c0-4.2-2.59-8.59-9.05-8.59a8.07,8.07,0,0,0-8.24,8.19c0,4.59,3.6,8.18,9.08,8.18A7.9,7.9,0,0,0,30,73.8" transform="translate(-7.21 -6.42)"/><path class="cls-1" d="M49.49,67.83c-1-.84-4-0.55-4.63-0.45l-0.18,0v4.41h3a2.55,2.55,0,0,0,.62,0c0.14,0,.2-0.08.33-0.12v2.66a1.85,1.85,0,0,0-.5-0.54,4.76,4.76,0,0,0-1.81-.25l-1.66,0v4.77a3.9,3.9,0,0,0,.27,2.18,2,2,0,0,0,.83.7H40.93a1.53,1.53,0,0,0,.93-0.72,4.1,4.1,0,0,0,.41-2.2V68.08A3.15,3.15,0,0,0,42,66.43a1.66,1.66,0,0,0-.93-0.84h8.17a0.87,0.87,0,0,0,.39,0A0.5,0.5,0,0,0,50,65.42v2.88a3.31,3.31,0,0,0-.47-0.48" transform="translate(-7.21 -6.42)"/><rect class="cls-1" x="12.07" y="33.31" width="30.5" height="4.17"/></svg>