<svg width="160" height="64" viewBox="0 0 160 64" fill="none" xmlns="http://www.w3.org/2000/svg">
<g clip-path="url(#clip0_460_2)">
<rect x="1" y="1" width="158" height="62" rx="11" fill="white" stroke="#798B96" stroke-width="2"/>
<path d="M70.792 24V16.44H73.384C75.268 16.44 76.192 17.484 76.192 18.876C76.192 20.244 75.292 21.324 73.456 21.324H72.112V24H70.792ZM73.432 17.58H72.112V20.184H73.468C74.404 20.184 74.836 19.656 74.836 18.888C74.836 18.036 74.272 17.58 73.432 17.58ZM80.7759 24.18C78.6159 24.18 76.8279 22.512 76.8279 20.22C76.8279 17.928 78.6279 16.26 80.7759 16.26C82.9359 16.26 84.7359 17.928 84.7359 20.22C84.7359 22.512 82.9479 24.18 80.7759 24.18ZM80.7759 22.956C82.2759 22.956 83.4039 21.84 83.4039 20.22C83.4039 18.6 82.2759 17.484 80.7759 17.484C79.2759 17.484 78.1719 18.6 78.1719 20.22C78.1719 21.84 79.2759 22.956 80.7759 22.956ZM86.3368 16.44L87.9568 22.62L89.5888 16.44H91.0408L92.6728 22.644L94.2808 16.44H95.6968L93.5608 24H91.8328L90.3088 18.432L88.7968 24H87.0568L84.9328 16.44H86.3368ZM96.6084 24V16.44H101.516V17.604H97.9284V19.596H101.228V20.76H97.9284V22.836H101.516V24H96.6084ZM102.808 24V16.44H105.46C107.416 16.44 108.376 17.352 108.376 18.756C108.376 19.812 107.752 20.688 106.504 20.976L108.676 24H107.104L105.076 21.084H104.128V24H102.808ZM105.508 17.58H104.128V19.944H105.544C106.564 19.944 107.02 19.536 107.02 18.768C107.02 18 106.42 17.58 105.508 17.58ZM109.733 24V16.44H114.641V17.604H111.053V19.596H114.353V20.76H111.053V22.836H114.641V24H109.733ZM115.933 24V16.44H117.985C120.901 16.44 122.569 17.952 122.569 20.22C122.569 22.488 120.901 24 117.985 24H115.933ZM118.141 22.812C120.001 22.812 121.237 21.948 121.237 20.22C121.237 18.492 120.001 17.628 118.141 17.628H117.253V22.812H118.141ZM125.847 24V16.44H128.643C130.359 16.44 131.103 17.268 131.103 18.432C131.103 19.02 130.839 19.644 130.095 20.004C131.187 20.4 131.439 21.144 131.439 21.768C131.439 23.064 130.623 24 128.895 24H125.847ZM128.475 17.532H127.167V19.632H128.487C129.411 19.632 129.747 19.332 129.747 18.576C129.747 17.844 129.291 17.532 128.475 17.532ZM128.715 20.688H127.167V22.908H128.727C129.675 22.908 130.083 22.536 130.083 21.804C130.083 21.06 129.663 20.688 128.715 20.688ZM134.285 24V20.904L131.633 16.44H133.157L134.969 19.608L136.817 16.44H138.269L135.617 20.892V24H134.285Z" fill="#798B96"/>
<path d="M71.08 48V32.88H74.8V38.808H80.704V32.88H84.424V48H80.704V42.048H74.8V48H71.08ZM97.0356 42.048H100.804C99.8436 47.16 96.4836 48.36 93.4836 48.36C89.0916 48.36 85.9716 45.024 85.9716 40.44C85.9716 35.856 88.9476 32.52 93.4836 32.52C96.4836 32.52 99.8676 33.864 100.804 38.832H96.9876C96.6036 36.912 95.4036 35.88 93.4836 35.88C91.2036 35.88 89.6916 37.8 89.6916 40.44C89.6916 43.08 91.2276 45 93.4836 45C95.4516 45 96.6276 44.016 97.0356 42.048ZM102.393 48V32.88H108.441C112.257 32.88 113.697 34.704 113.697 36.888C113.697 38.112 113.097 39.384 111.393 40.08C113.793 40.8 114.297 42.264 114.297 43.464C114.297 46.104 112.545 48 108.897 48H102.393ZM108.057 35.64H106.113V39H107.913C109.353 39 109.953 38.496 109.953 37.248C109.953 36.12 109.257 35.64 108.057 35.64ZM108.465 41.64H106.113V45.24H108.417C109.761 45.24 110.553 44.64 110.553 43.464C110.553 42.24 109.785 41.64 108.465 41.64Z" fill="#17171D"/>
<circle cx="36" cy="32" r="22.5" stroke="#E42D42" stroke-width="3"/>
<path d="M22.5 44C22.5 43.172 23.172 42.5 24 42.5H48C48.828 42.5 49.5 43.172 49.5 44C49.5 44.828 48.828 45.5 48 45.5H24C23.172 45.5 22.5 44.828 22.5 44Z" fill="#E42D42"/>
<path fill-rule="evenodd" clip-rule="evenodd" d="M36 41C35.172 41 34.5 40.328 34.5 39.5V29C34.5 28.172 35.172 27.5 36 27.5C36.828 27.5 37.5 28.172 37.5 29V39.5C37.5 40.328 36.828 41 36 41Z" fill="#E42D42"/>
<path fill-rule="evenodd" clip-rule="evenodd" d="M43.5 41C42.672 41 42 40.328 42 39.5V29C42 28.172 42.672 27.5 43.5 27.5C44.328 27.5 45 28.172 45 29V39.5C45 40.328 44.328 41 43.5 41Z" fill="#E42D42"/>
<path fill-rule="evenodd" clip-rule="evenodd" d="M28.5 41C27.672 41 27 40.328 27 39.5V29C27 28.172 27.672 27.5 28.5 27.5C29.328 27.5 30 28.172 30 29V39.5C30 40.328 29.328 41 28.5 41Z" fill="#E42D42"/>
<path d="M36.0004 20.027C36.0619 20.048 36.1564 20.084 36.2914 20.144C36.6499 20.2985 37.0759 20.5205 37.6234 20.834C38.7364 21.47 40.1299 22.3685 41.6974 23.4755C44.8489 25.6985 45 26 48.4399 28.5605C49.0249 29.147 49.9759 29.147 50.5609 28.5605C51.1474 27.9755 51.1474 27.0245 50.5609 26.4395C47.25 23.75 46.6519 23.3015 43.4284 21.0245C41.8084 19.8815 40.2949 18.905 39.1114 18.2285C38.5099 17.885 37.9414 17.591 37.4959 17.396C37.1029 17.2235 36.5374 17 36.0004 17C35.4634 17 34.8979 17.2235 34.5049 17.396C34.0594 17.591 33.4909 17.885 32.8894 18.2285C31.7059 18.905 30.1924 19.8815 28.5724 21.0245C25.3489 23.3015 24.7508 23.75 21.4399 26.4395C20.8534 27.0245 20.8534 27.9755 21.4399 28.5605C22.0249 29.147 22.9759 29.147 23.5609 28.5605C27.0008 26 27.1519 25.6985 30.3034 23.4755C31.8709 22.3685 33.2644 21.47 34.3774 20.834C34.9249 20.5205 35.3509 20.2985 35.7094 20.144C35.8444 20.084 35.9389 20.048 36.0004 20.027Z" fill="#E42D42"/>
</g>
<defs>
<clipPath id="clip0_460_2">
<rect width="160" height="64" fill="white"/>
</clipPath>
</defs>
</svg>
