<svg xmlns="http://www.w3.org/2000/svg" xmlns:xlink="http://www.w3.org/1999/xlink" width="1366" zoomAndPan="magnify" viewBox="0 0 1024.5 576" height="768" preserveAspectRatio="xMidYMid meet" version="1.0"><defs><clipPath id="6248c315d3"><path d="M 0.5 220.757812 L 1023.75 220.757812 L 1023.75 575.859375 L 0.5 575.859375 Z M 0.5 220.757812 " clip-rule="nonzero"/></clipPath><clipPath id="7bc0dc5e7f"><path d="M 0.5 0.140625 L 1024 0.140625 L 1024 229.679688 L 0.5 229.679688 Z M 0.5 0.140625 " clip-rule="nonzero"/></clipPath></defs><g clip-path="url(#6248c315d3)"><path fill="#FFFFFF" d="M 0.5 593.910156 L 43.136719 584.101562 C 85.769531 574.398438 171.042969 554.78125 256.3125 530.6875 C 341.582031 506.484375 426.855469 477.699219 512.125 483.5625 C 597.394531 489.425781 682.667969 529.941406 767.9375 536.019531 C 853.207031 541.988281 938.480469 513.628906 981.113281 499.34375 L 1023.75 485.164062 L 1023.75 220.757812 L 981.113281 220.757812 C 938.480469 220.757812 853.207031 220.757812 767.9375 220.757812 C 682.667969 220.757812 597.394531 220.757812 512.125 220.757812 C 426.855469 220.757812 341.582031 220.757812 256.3125 220.757812 C 171.042969 220.757812 85.769531 220.757812 43.136719 220.757812 L 0.5 220.757812 Z M 0.5 593.910156 " fill-opacity="1" fill-rule="nonzero"/></g><g clip-path="url(#7bc0dc5e7f)"><path fill="#FFFFFF" d="M 0.5 0.140625 L 1060.332031 0.140625 L 1060.332031 229.679688 L 0.5 229.679688 Z M 0.5 0.140625 " fill-opacity="1" fill-rule="nonzero"/></g></svg>