<svg xmlns="http://www.w3.org/2000/svg" xmlns:xlink="http://www.w3.org/1999/xlink" width="1366" zoomAndPan="magnify" viewBox="0 0 1024.5 576" height="768" preserveAspectRatio="xMidYMid meet" version="1.0"><defs><clipPath id="6f387e2b2c"><path d="M 0 202.996094 L 1024 202.996094 L 1024 536 L 0 536 Z M 0 202.996094 " clip-rule="nonzero"/></clipPath><clipPath id="6185c02f3a"><path d="M 0 0.140625 L 1024 0.140625 L 1024 221.0625 L 0 221.0625 Z M 0 0.140625 " clip-rule="nonzero"/></clipPath></defs><g clip-path="url(#6f387e2b2c)"><path fill="#b9fbb2" d="M 1024 535.632812 L 989.867188 524.96875 C 955.734375 514.308594 887.46875 492.984375 819.199219 474.328125 C 750.933594 455.671875 682.667969 439.679688 614.398438 444.691406 C 546.132812 449.59375 477.867188 475.609375 409.601562 475.609375 C 341.332031 475.609375 273.066406 449.59375 204.800781 437.011719 C 136.535156 424.433594 68.265625 425.074219 34.132812 425.5 L 0 425.820312 L 0 201.929688 L 34.132812 201.929688 C 68.265625 201.929688 136.535156 201.929688 204.800781 201.929688 C 273.066406 201.929688 341.332031 201.929688 409.601562 201.929688 C 477.867188 201.929688 546.132812 201.929688 614.398438 201.929688 C 682.667969 201.929688 750.933594 201.929688 819.199219 201.929688 C 887.46875 201.929688 955.734375 201.929688 989.867188 201.929688 L 1024 201.929688 Z M 1024 535.632812 " fill-opacity="1" fill-rule="nonzero"/></g><g clip-path="url(#6185c02f3a)"><path fill="#b9fbb2" d="M 1024 221.0625 L 0.234375 221.0625 L 0.234375 -25.023438 L 1024 -25.023438 Z M 1024 221.0625 " fill-opacity="1" fill-rule="nonzero"/></g></svg>