<svg id="visual" viewBox="0 0 960 540" width="960" height="540" xmlns="http://www.w3.org/2000/svg" xmlns:xlink="http://www.w3.org/1999/xlink" version="1.1"><path d="M0 228L32 238C64 248 128 268 192 285.5C256 303 320 318 384 313.3C448 308.7 512 284.3 576 284.3C640 284.3 704 308.7 768 320.5C832 332.3 896 331.7 928 331.3L960 331L960 541L928 541C896 541 832 541 768 541C704 541 640 541 576 541C512 541 448 541 384 541C320 541 256 541 192 541C128 541 64 541 32 541L0 541Z" fill="#A5D6A7" stroke-linecap="round" stroke-linejoin="miter"></path></svg>