<svg xmlns="http://www.w3.org/2000/svg" xmlns:xlink="http://www.w3.org/1999/xlink" width="500" zoomAndPan="magnify" viewBox="0 0 375 374.999991" height="500" preserveAspectRatio="xMidYMid meet" version="1.0"><defs><clipPath id="2437e9d4be"><path d="M 158 87.289062 L 228 87.289062 L 228 197 L 158 197 Z M 158 87.289062 " clip-rule="nonzero"/></clipPath><clipPath id="42f5258d32"><path d="M 81 152 L 293 152 L 293 287.539062 L 81 287.539062 Z M 81 152 " clip-rule="nonzero"/></clipPath></defs><path fill="#9e3d28" d="M 260.167969 166.515625 C 258.335938 166.617188 256.507812 167.109375 254.726562 167.457031 C 253.886719 167.65625 253.046875 167.804688 252.203125 167.953125 C 251.808594 168.050781 251.3125 168 250.96875 168.296875 C 250.523438 168.59375 250.425781 169.089844 250.570312 169.484375 C 250.570312 169.632812 250.570312 169.78125 250.570312 169.929688 C 250.671875 171.363281 251.214844 172.75 251.5625 174.136719 C 251.957031 176.015625 252.105469 177.101562 252.203125 178.4375 C 252.253906 179.128906 252.304688 179.824219 252.304688 180.464844 C 252.304688 180.367188 252.351562 180.269531 252.351562 180.167969 C 252.304688 180.613281 252.203125 181.109375 252.402344 181.554688 C 252.648438 182.246094 253.636719 182.445312 254.183594 181.902344 C 254.332031 181.753906 254.378906 181.605469 254.480469 181.457031 C 254.480469 181.457031 254.480469 181.40625 254.480469 181.40625 C 254.480469 181.40625 254.480469 181.40625 254.480469 181.457031 C 254.480469 181.457031 254.429688 181.503906 254.429688 181.554688 C 254.777344 180.960938 255.121094 180.367188 255.417969 179.773438 C 256.359375 178.191406 257.101562 176.507812 257.992188 174.875 C 258.878906 173.195312 260.019531 171.5625 260.808594 169.832031 C 261.007812 169.386719 261.253906 168.941406 261.402344 168.496094 C 261.847656 167.605469 261.15625 166.566406 260.167969 166.515625 Z M 260.167969 166.515625 " fill-opacity="1" fill-rule="nonzero"/><path fill="#f0f0f0" d="M 132.921875 251.394531 C 146.71875 261.78125 165.261719 264.15625 182.277344 261.335938 C 189.25 260.199219 196.074219 258.222656 202.304688 254.90625 C 212.144531 249.613281 219.859375 241.207031 227.082031 232.648438 C 240.53125 216.625 253.390625 197.976562 253.191406 177.054688 C 253.191406 175.273438 253.046875 173.492188 252.453125 171.859375 C 250.96875 167.902344 246.8125 165.480469 242.660156 164.636719 C 229.554688 161.96875 217.089844 171.859375 209.476562 182.839844 C 201.859375 193.871094 196.667969 206.78125 186.675781 215.683594 C 178.269531 223.152344 167.292969 226.960938 157.054688 231.609375 C 146.816406 236.261719 136.382812 242.492188 132.921875 251.394531 Z M 132.921875 251.394531 " fill-opacity="1" fill-rule="nonzero"/><g clip-path="url(#2437e9d4be)"><path fill="#d94a7c" d="M 174.214844 194.363281 C 167.882812 189.074219 161.160156 183.085938 159.773438 174.925781 C 159.625 173.9375 159.625 172.800781 160.417969 172.207031 C 160.910156 171.859375 161.554688 171.808594 162.195312 171.859375 C 163.976562 171.910156 165.707031 172.105469 167.4375 172.402344 C 164.621094 168.792969 162.097656 165.035156 159.871094 161.027344 C 158.4375 158.503906 157.300781 154.941406 159.476562 153.0625 C 161.652344 151.132812 165.015625 152.816406 167.390625 154.5 C 164.125 150.738281 161.652344 146.289062 160.167969 141.539062 C 159.921875 140.796875 159.722656 140.054688 159.972656 139.3125 C 160.417969 137.78125 162.445312 137.382812 164.078125 137.632812 C 167.09375 138.027344 169.960938 139.660156 171.890625 142.082031 C 167.785156 135.554688 166.300781 127.390625 167.882812 119.824219 C 171.542969 122.199219 174.363281 125.859375 175.699219 130.015625 C 174.066406 126.15625 173.226562 121.953125 173.273438 117.796875 C 173.324219 115.078125 174.460938 111.664062 177.183594 111.613281 C 179.0625 111.5625 180.496094 113.34375 181.1875 115.078125 C 181.878906 116.808594 182.128906 118.785156 183.214844 120.320312 C 182.574219 115.472656 182.820312 110.476562 183.90625 105.726562 C 184.5 103.058594 185.886719 100.039062 188.605469 99.742188 C 191.226562 99.445312 193.253906 102.117188 193.898438 104.640625 C 194.539062 107.210938 194.34375 109.933594 195.332031 112.355469 C 194.984375 103.945312 200.523438 95.6875 208.386719 92.769531 C 209.03125 95.734375 209.03125 98.851562 208.289062 101.820312 C 211.257812 96.03125 216.152344 91.234375 221.988281 88.316406 C 223.074219 87.773438 224.214844 87.328125 225.398438 87.378906 C 226.585938 87.425781 227.824219 88.265625 227.972656 89.453125 C 228.070312 90.296875 227.675781 91.085938 227.277344 91.828125 C 220.503906 104.492188 212.246094 116.410156 207.050781 129.816406 C 201.910156 143.21875 200.179688 158.800781 206.65625 171.613281 C 207.152344 172.652344 207.746094 173.691406 207.792969 174.828125 C 207.84375 176.609375 206.558594 178.140625 205.371094 179.476562 C 201.464844 183.828125 197.457031 188.230469 192.511719 191.347656 C 187.320312 194.511719 179.753906 199.015625 174.214844 194.363281 Z M 174.214844 194.363281 " fill-opacity="1" fill-rule="nonzero"/></g><g clip-path="url(#42f5258d32)"><path fill="#f08db0" d="M 135.046875 227.652344 C 117.589844 230.273438 99.882812 231.117188 82.277344 230.125 C 80.894531 232.796875 82.527344 236.210938 85 237.890625 C 87.472656 239.574219 90.585938 239.921875 93.554688 240.265625 C 90.882812 241.109375 88.363281 242.492188 86.285156 244.324219 C 85.195312 245.261719 84.207031 246.398438 83.910156 247.785156 C 83.269531 250.851562 86.582031 253.570312 89.695312 253.621094 C 92.8125 253.671875 95.632812 251.839844 98.253906 250.160156 C 95.1875 253.324219 92.664062 257.035156 90.785156 260.992188 C 89.546875 263.613281 89.351562 267.816406 92.21875 268.3125 C 93.257812 268.511719 94.347656 268.015625 95.285156 267.472656 C 98.894531 265.492188 102.257812 262.921875 105.078125 259.902344 C 102.40625 263.367188 100.132812 267.125 98.152344 271.03125 C 97.410156 272.566406 96.671875 274.394531 97.460938 275.929688 C 98.699219 278.253906 102.308594 277.757812 104.285156 276.027344 C 106.265625 274.296875 107.5 271.773438 109.726562 270.339844 C 108.589844 273.851562 107.453125 277.609375 108.488281 281.121094 C 109.527344 284.683594 113.683594 287.503906 116.898438 285.820312 C 118.035156 285.226562 118.875 284.140625 119.714844 283.152344 C 125.058594 276.226562 130.152344 269.152344 134.898438 261.832031 C 136.828125 258.863281 138.804688 255.75 141.671875 253.671875 C 149.488281 248.03125 160.167969 251.742188 169.664062 252.929688 C 177.429688 253.917969 185.441406 252.980469 193.898438 251.445312 C 196.417969 254.757812 198.050781 258.667969 200.226562 262.226562 C 202.402344 265.789062 205.371094 269.152344 209.328125 270.390625 C 210.167969 270.636719 211.207031 270.785156 211.898438 270.242188 C 212.441406 269.796875 212.691406 269.054688 212.839844 268.363281 C 213.332031 266.035156 213.53125 263.664062 213.480469 261.289062 C 215.90625 267.769531 220.007812 273.605469 225.25 278.105469 C 226.734375 279.34375 229.257812 280.382812 230.296875 278.75 C 230.640625 278.15625 230.691406 277.460938 230.640625 276.769531 C 230.542969 273.652344 230.148438 270.539062 229.40625 267.519531 C 232.472656 273.40625 236.824219 278.601562 242.066406 282.65625 C 243.402344 283.695312 244.835938 284.632812 246.515625 284.980469 C 248.199219 285.328125 250.078125 284.832031 251.015625 283.398438 C 251.660156 282.457031 251.757812 281.320312 251.808594 280.234375 C 251.957031 277.015625 251.609375 273.753906 249.683594 271.726562 C 256.011719 278.898438 264.269531 284.339844 273.371094 287.355469 C 274.0625 282.605469 272.332031 277.511719 268.820312 274.246094 C 273.222656 278.796875 278.960938 282.0625 285.140625 283.546875 C 287.761719 284.191406 291.074219 284.191406 292.460938 281.914062 C 293.894531 279.492188 292.015625 276.472656 290.085938 274.394531 C 279.207031 262.871094 263.234375 256.09375 255.171875 242.441406 C 250.570312 234.675781 248.839844 225.132812 242.660156 218.550781 C 240.335938 216.128906 237.46875 214.148438 235.882812 211.183594 C 234.894531 209.351562 234.449219 207.273438 234.054688 205.246094 C 232.371094 197.035156 230.789062 188.378906 233.558594 180.464844 C 236.378906 172.601562 245.378906 166.269531 252.699219 170.574219 C 249.136719 164.6875 245.328125 158.503906 239.296875 155.191406 C 233.113281 151.777344 225.351562 151.976562 218.824219 154.644531 C 212.292969 157.316406 206.902344 162.3125 203.046875 168.25 C 198.84375 173.246094 196.46875 179.921875 191.128906 183.679688 C 188.851562 185.265625 186.183594 186.203125 183.5625 187.242188 C 174.414062 190.902344 165.957031 196.195312 158.585938 202.722656 C 153.492188 207.273438 148.894531 212.417969 144.394531 217.515625 C 141.277344 221.125 138.0625 224.734375 135.046875 227.652344 Z M 135.046875 227.652344 " fill-opacity="1" fill-rule="nonzero"/></g><path fill="#4d4d4d" d="M 245.972656 173.691406 C 245.527344 172.699219 245.082031 171.613281 244.144531 170.96875 C 243.105469 170.328125 241.570312 170.277344 240.632812 171.117188 C 239.050781 172.550781 239.050781 174.976562 239.148438 176.953125 C 239.296875 177.648438 239.050781 178.535156 239.59375 179.128906 C 240.285156 179.871094 241.621094 179.328125 241.570312 178.289062 C 241.175781 175.273438 241.523438 173.195312 242.164062 172.800781 C 242.164062 172.800781 242.214844 172.800781 242.214844 172.800781 C 242.3125 172.800781 242.414062 172.800781 242.5625 172.800781 C 242.609375 172.800781 242.660156 172.847656 242.757812 172.847656 C 242.808594 172.847656 242.855469 172.898438 242.90625 172.898438 C 242.957031 172.949219 243.003906 172.996094 243.054688 173.046875 C 243.894531 174.332031 243.796875 174.726562 244.390625 175.71875 C 244.886719 176.507812 246.171875 176.210938 246.417969 175.320312 C 246.566406 174.777344 246.171875 174.234375 245.972656 173.691406 Z M 245.972656 173.691406 " fill-opacity="1" fill-rule="nonzero"/></svg>